<svg version="1.1" xmlns="http://www.w3.org/2000/svg" x="0px" y="0px" viewBox="0 0 153.2 53" xml:space="preserve">
<style type="text/css">
								.st0{fill-rule:evenodd;clip-rule:evenodd;fill:#008ECF;}
								.st1{fill-rule:evenodd;clip-rule:evenodd;fill:#575756;}
							</style>
<g>
<path class="st0" d="M17.6,11.5c7.7,1,13.7,7.5,13.7,15.5l-13.7-7.9V11.5L17.6,11.5z M13.7,19.1L0,27c0-8,6-14.6,13.7-15.5V19.1
									L13.7,19.1z M30.7,31.2c-1.8,6.6-7.9,11.5-15.1,11.5c-7.2,0-13.2-4.8-15.1-11.5l15.1-8.7L30.7,31.2L30.7,31.2z"></path>
<path class="st1" d="M77.4,20.7c5.2,0,9.4,4.2,9.4,9.4v9.4h-3.9v-1.8c-1.5,1.1-3.4,1.8-5.5,1.8c-5.2,0-9.4-4.2-9.4-9.4
									C68,24.9,72.2,20.7,77.4,20.7L77.4,20.7z M77.4,24.6c3,0,5.5,2.5,5.5,5.5c0,3-2.5,5.5-5.5,5.5c-3,0-5.5-2.5-5.5-5.5
									C71.9,27.1,74.4,24.6,77.4,24.6L77.4,24.6z"></path>
<polygon class="st1" points="105.5,20.7 101.3,20.7 96.1,34.1 91,20.7 86.8,20.7 94.1,39.5 98.2,39.5 105.5,20.7 	"></polygon>
<polygon class="st1" points="111.4,20.7 107.5,20.7 107.5,39.5 111.4,39.5 111.4,20.7 	"></polygon>
<polygon class="st1" points="132.1,20.7 127.2,20.7 122.7,26.8 118.2,20.7 113.3,20.7 120.3,30.1 113.3,39.5 118.2,39.5
									122.7,33.4 127.2,39.5 132.1,39.5 125.1,30.1 132.1,20.7 	"></polygon>
<polygon class="st1" points="46.9,14.5 43,14.5 43,39.5 46.9,39.5 46.9,20.9 61,39.5 64.9,39.5 64.9,14.5 61,14.5 61,33.1
									46.9,14.5 	"></polygon>
<polygon class="st1" points="152.8,20.7 148.6,20.7 146.3,26.6 146.3,26.6 143.4,34.1 138.2,20.7 134,20.7 141.3,39.5 139,45.4
									143.2,45.4 145.5,39.5 145.5,39.5 150.5,26.6 152.8,20.7 	"></polygon>
</g>
</svg>