<?xml version="1.0" encoding="utf-8"?>
<!-- Generator: Adobe Illustrator 27.5.0, SVG Export Plug-In . SVG Version: 6.00 Build 0)  -->
<svg version="1.1" id="Layer_1" xmlns="http://www.w3.org/2000/svg" xmlns:xlink="http://www.w3.org/1999/xlink" x="0px" y="0px"
	 viewBox="0 0 361.4 77.6" style="enable-background:new 0 0 361.4 77.6;" xml:space="preserve">
<style type="text/css">
	.st0{fill:#FFFFFF;}
</style>
<g>
	<g>
		<path class="st0" d="M146.3,66.3h-11l-24.7-37.7v37.7H99.7v-55h10.9l24.7,37.8V11.4h11V66.3L146.3,66.3z"/>
		<path class="st0" d="M156.5,33.4c-4.2,9.1-1.9,19.4-0.1,22.8c1.7,3.4,4.1,6.1,7.1,7.9c3,1.9,6.3,2.6,10,2.8c8,0.4,13-4.1,14.4-6.1
			v5.4h11c0,0,0-17,0-22.6C198.9,18.3,163.8,17.6,156.5,33.4z M186.3,51.4c-1,1.9-2.5,3.4-4.2,4.4c-1.8,1-3.7,1.5-5.7,1.5
			s-3.8-0.5-5.6-1.6c-1.7-1-3.2-2.5-4.2-4.5c-1.1-2-1.6-4.2-1.6-6.8s0.7-7.3,5.8-10.7c1.7-1.1,3.6-1.5,5.6-1.5s3.9,0.5,5.7,1.5
			c5.8,3.3,5.8,8.1,5.8,10.8C187.9,47.2,187.4,49.5,186.3,51.4z"/>
		<path class="st0" d="M223.3,56.1l10.9-33.2h11.6l-16,43.3h-13.3l-15.9-43.3h11.7L223.3,56.1z"/>
		<path class="st0" d="M264,22.9v43.3h-10.9V22.9H264z"/>
		<path class="st0" d="M299.7,66.2l-8.9-13.4l-7.9,13.4h-11.7l14.1-21.7L271,22.9h12.4l8.8,13.4l8-13.4h11.7l-14.2,21.6l14.4,21.7
			H299.7z"/>
		<polygon class="st0" points="327,77.6 338.5,77.6 361.4,22.9 349.8,22.9 338.2,54.2 327.3,22.9 315,22.9 332.1,66.2 		"/>
	</g>
	<g>
		<path class="st0" d="M32.1,0.2C13.8,3.4,0.3,19.3,0,37.9v2l33.5-20V0L32.1,0.2z"/>
		<path class="st0" d="M77.8,38.4C77.7,19.6,64.2,3.5,45.7,0.2L44.3,0v20.1l33.5,20.3V38.4z"/>
		<path class="st0" d="M2.5,52.3c2.8,7.3,7.6,13.6,14,18.1c6.6,4.6,14.3,7.1,22.4,7.1c8,0,15.7-2.4,22.2-7
			c6.4-4.4,11.2-10.6,14-17.8l0.3-0.9L38.8,29.6L2.1,51.5L2.5,52.3z"/>
	</g>
</g>
</svg>
